#tb 0: 1/25
0,          0,          0,        1,   152064, 0xb4e6c735
0,          1,          1,        1,   152064, 0xbfa36592
0,          2,          2,        1,   152064, 0x8678003e
0,          3,          3,        1,   152064, 0xb1e9b1a3
0,          4,          4,        1,   152064, 0x6ccf66ac
0,          5,          5,        1,   152064, 0x3390056b
0,          6,          6,        1,   152064, 0x4fcae508
0,          7,          7,        1,   152064, 0x2528a210
0,          8,          8,        1,   152064, 0x8128070e
0,          9,          9,        1,   152064, 0xc991f27d
0,         10,         10,        1,   152064, 0xe97a9a8b
0,         11,         11,        1,   152064, 0x71cb32fb
0,         12,         12,        1,   152064, 0x0b395f46
0,         13,         13,        1,   152064, 0x362c1742
0,         14,         14,        1,   152064, 0x14d23d11
0,         15,         15,        1,   152064, 0x4d11a4d6
0,         16,         16,        1,   152064, 0xee808ebb
0,         17,         17,        1,   152064, 0x1d69964c
0,         18,         18,        1,   152064, 0xfd5c30e6
0,         19,         19,        1,   152064, 0xcd69b313
0,         20,         20,        1,   152064, 0x3d75953b
0,         21,         21,        1,   152064, 0xd6c698ea
0,         22,         22,        1,   152064, 0x25006f22
0,         23,         23,        1,   152064, 0x44e6a8a7
0,         24,         24,        1,   152064, 0x0c251d62
0,         25,         25,        1,   152064, 0x95579936
0,         26,         26,        1,   152064, 0x8156c4f5
0,         27,         27,        1,   152064, 0xca743348
0,         28,         28,        1,   152064, 0x56a1373d
0,         29,         29,        1,   152064, 0x17360ed3
0,         30,         30,        1,   152064, 0x245243a1
0,         31,         31,        1,   152064, 0xdd5ff4df
0,         32,         32,        1,   152064, 0x2b979f45
0,         33,         33,        1,   152064, 0x8a74da27
0,         34,         34,        1,   152064, 0x27a7cd9f
0,         35,         35,        1,   152064, 0xaa543c0f
0,         36,         36,        1,   152064, 0xd72b5d8a
0,         37,         37,        1,   152064, 0x8538f93d
0,         38,         38,        1,   152064, 0x3fdc67b7
0,         39,         39,        1,   152064, 0x4fe2154f
0,         40,         40,        1,   152064, 0x908e09fb
0,         41,         41,        1,   152064, 0x75ca5951
0,         42,         42,        1,   152064, 0xd4a2ef14
0,         43,         43,        1,   152064, 0x32d343a7
0,         44,         44,        1,   152064, 0x59733ac8
0,         45,         45,        1,   152064, 0x268d64da
0,         46,         46,        1,   152064, 0x813eaf95
0,         47,         47,        1,   152064, 0xf098ff5b
0,         48,         48,        1,   152064, 0xc5b85c26
0,         49,         49,        1,   152064, 0xc0f79718
